<?xml version="1.0" ?><svg enable-background="new 0 0 32 32" version="1.1" viewBox="0 0 32 32" xml:space="preserve" xmlns="http://www.w3.org/2000/svg" xmlns:xlink="http://www.w3.org/1999/xlink"><g id="FLAT"><g><path d="M0,22.804L0,6.752c0-1.171,0.958-2.13,2.13-2.13H29.87c1.171,0,2.13,0.958,2.13,2.13v16.051H0z" fill="#E04F5F"/></g><g><rect height="5.118" width="2" x="6.29" y="1.571"/></g><g><rect height="5.075" width="2" x="23.796" y="1.571"/></g><g><path d="M32,12.249V28.3c0,1.171-0.958,2.13-2.13,2.13H2.13C0.958,30.429,0,29.471,0,28.3V12.249H32z" fill="#32BEA6"/></g><g><path d="M19.937,27.425l-3.937-2.975l-3.937,2.975l1.504-4.813L9.646,19.65h4.847l1.508-4.823l1.508,4.823h4.846    l-3.921,2.962L19.937,27.425z" fill="#FFFFFF"/></g><g><path d="M13.445,8.967l0.795,0.252c-0.122,0.443-0.324,0.772-0.608,0.987c-0.283,0.215-0.643,0.323-1.078,0.323    c-0.538,0-0.981-0.184-1.328-0.552s-0.521-0.872-0.521-1.51c0-0.675,0.175-1.2,0.523-1.574c0.349-0.374,0.807-0.561,1.375-0.561    c0.497,0,0.9,0.147,1.21,0.44c0.185,0.173,0.323,0.422,0.415,0.747l-0.811,0.194c-0.048-0.21-0.148-0.376-0.301-0.498    c-0.152-0.122-0.337-0.183-0.555-0.183c-0.301,0-0.545,0.108-0.732,0.324s-0.281,0.565-0.281,1.049    c0,0.513,0.093,0.878,0.277,1.096c0.185,0.218,0.425,0.327,0.72,0.327c0.218,0,0.405-0.069,0.562-0.208    C13.265,9.482,13.377,9.265,13.445,8.967z" fill="#FFFFFF"/><path d="M18.603,10.459h-0.892l-0.354-0.922h-1.622l-0.335,0.922H14.53l1.581-4.058h0.866L18.603,10.459z     M17.094,8.854l-0.56-1.506l-0.548,1.506H17.094z" fill="#FFFFFF"/><path d="M19.059,10.459V6.435h0.819v3.341h2.037v0.684H19.059z" fill="#FFFFFF"/></g></g></svg>