<?xml version="1.0" ?><svg enable-background="new 0 0 64 64" version="1.1" viewBox="0 0 64 64" xml:space="preserve" xmlns="http://www.w3.org/2000/svg" xmlns:xlink="http://www.w3.org/1999/xlink"><g id="Layer_2"><g><g><circle cx="32" cy="32" fill="#2D2D2D" r="32"/></g><g><defs><circle cx="32" cy="32" id="SVGID_7_" r="32"/></defs><clipPath id="SVGID_2_"><use overflow="visible" xlink:href="#SVGID_7_"/></clipPath><g clip-path="url(#SVGID_2_)"><polygon fill="#FFFFFF" points="1.156,57.711 30.876,27.991 59.568,56.683 61.689,56.683 31.936,26.931 57.439,1.428       55.318,1.428 21.299,35.447 8.875,23.024 41.409,-9.51 39.288,-9.51 7.815,21.964 -8.887,5.262 -8.887,7.383 20.238,36.508       -0.965,57.711     "/></g></g><g><g><path d="M38.373,54.766l-0.911-1.203c-0.67-0.877-6.537-8.709-6.537-12.61c0-4.681,2.922-7.706,7.448-7.706      s7.448,3.025,7.448,7.706c0,3.896-5.867,11.728-6.531,12.61L38.373,54.766z" fill="#DB2B42"/></g><g><circle cx="38.368" cy="41.004" fill="#FFFFFF" r="2.412"/></g></g></g></g></svg>