<?xml version="1.0" ?><!DOCTYPE svg  PUBLIC '-//W3C//DTD SVG 1.1//EN'  'http://www.w3.org/Graphics/SVG/1.1/DTD/svg11.dtd'><svg enable-background="new 0 0 128 128" height="128px" id="icon" version="1.1" viewBox="0 0 128 128" width="128px" xml:space="preserve" xmlns="http://www.w3.org/2000/svg" xmlns:xlink="http://www.w3.org/1999/xlink"><rect fill="#231F20" height="4" width="14" x="33.5" y="61.5"/><rect fill="#231F20" height="4" width="14" x="77.5" y="61.5"/><g><path d="M118.763,60.881c0.154,0.767,0.237,1.558,0.237,2.369c0,6.617-5.383,12-12,12s-12-5.383-12-12   s5.383-12,12-12c2.539,0,4.892,0.797,6.832,2.147l2.563-3.079c-2.64-1.922-5.879-3.068-9.395-3.068c-8.837,0-16,7.163-16,16   s7.163,16,16,16s16-7.163,16-16c0-2.111-0.419-4.122-1.162-5.967L118.763,60.881z" fill="#231F20"/><polygon fill="#1052A0" points="121.758,47 106.125,65.813 100.25,59.938 97.625,62.563 106.764,71.841 126.857,48.333  "/></g><g><path d="M63,47c-8.837,0-16,7.163-16,16s7.163,16,16,16s16-7.163,16-16S71.837,47,63,47z M63,75   c-6.617,0-12-5.383-12-12s5.383-12,12-12s12,5.383,12,12S69.617,75,63,75z" fill="#231F20"/><circle cx="63" cy="63" fill="#1052A0" r="5"/></g><g><path d="M19,47c-8.837,0-16,7.163-16,16s7.163,16,16,16s16-7.163,16-16S27.837,47,19,47z M19,75   c-6.617,0-12-5.383-12-12s5.383-12,12-12s12,5.383,12,12S25.617,75,19,75z" fill="#231F20"/><circle cx="19" cy="63" fill="#1052A0" r="5"/></g></svg>