<?xml version="1.0" ?><!DOCTYPE svg  PUBLIC '-//W3C//DTD SVG 1.1//EN'  'http://www.w3.org/Graphics/SVG/1.1/DTD/svg11.dtd'><svg enable-background="new 0 0 128 128" height="128px" id="Layer_1" version="1.1" viewBox="0 0 128 128" width="128px" xml:space="preserve" xmlns="http://www.w3.org/2000/svg" xmlns:xlink="http://www.w3.org/1999/xlink"><path d="M51.002,24.501c-16.568,0-30,13.432-30,30s13.432,30,30,30c5.742,0,11.106-1.615,15.666-4.414l-3.438-4.149  c-2.354-2.843-1.958-7.072,0.883-9.427c1.097-0.914,2.44-1.441,3.882-1.522l0.266-0.006c0.977,0,3.404,0.188,4.847,1.931  c0.155,0.187,1.8,2.164,3.145,3.779c3.003-4.672,4.751-10.226,4.751-16.191C81.002,37.933,67.57,24.501,51.002,24.501z   M48.959,67.075L48.5,66.892v0.064L34.934,56.587l2.617-3.5l10.99,8.49l17.441-20.65l2.941,2.648L48.959,67.075z" fill="#F47E2F"/><path d="M106.623,87.331c-0.592-0.973-1.668-4.259-1.811-5.09c-0.131-0.773-0.295-1.732-0.818-3.219  c-1.409-3.98-6.185-8.82-6.41-9.046l-0.08-0.072c-2.987-2.48-5.384-1.241-6.814-0.499c-0.406,0.21-0.862,0.443-1.129,0.479  c-2.11-0.368-5.216,0.45-7.494,2.63c-0.453,0.188-1.346,0.614-2.229,1.351c-0.766,0.633-1.355,1.352-1.762,2.148  c-2.426-2.917-6.037-7.254-6.51-7.825c-1.037-1.252-3.2-1.213-3.459-1.203c-1.005,0.057-1.95,0.425-2.719,1.064  c-1.993,1.652-2.271,4.617-0.619,6.611l11.539,13.924c0.201,0.244,0.361,0.465,0.493,0.667c-4.412,1.021-7.017,2.608-7.781,4.714  c-0.765,2.107,0.595,3.779,0.652,3.852c2.197,2.654,6.238,1.266,6.642,1.114c6.253-1.644,10.94,0.894,12.161,2.306l7.813,5.781  l13.901-14.662L106.623,87.331z" fill="#064A76"/></svg>